<!-- web3.lu — Logo texte italique (Outfit) avec nuage tricolore et carrés équilibrés -->
<svg width="320" height="120" viewBox="0 0 320 120" xmlns="http://www.w3.org/2000/svg" role="img" aria-labelledby="title desc">
  <title id="title">web3.lu — logo texte final (Outfit italique, nuage tricolore corrigé)</title>
  <desc id="desc">Logo "web3.lu" en italique, police Outfit, avec un nuage de carrés rouges, blancs et bleus en bas à gauche et quelques carrés dispersés autour, couleurs uniformes, fond noir arrondi.</desc>

  <defs>
    <!-- Dégradé luxembourgeois aligné sur le 3 -->
    <linearGradient id="lux-flag" x1="0" y1="0" x2="0" y2="1">
      <stop offset="0%"  stop-color="#EF3340"/>
      <stop offset="43%" stop-color="#EF3340"/>
      <stop offset="43%" stop-color="#FFFFFF"/>
      <stop offset="61%" stop-color="#FFFFFF"/>
      <stop offset="61%" stop-color="#00A3E0"/>
      <stop offset="100%" stop-color="#00A3E0"/>
    </linearGradient>

    <!-- Styles -->
    <style>
      .card { fill: #0B0C10; }
      .label {
        font-family: "Outfit", sans-serif;
        font-weight: 700;
        letter-spacing: 0.5px;
        transform: skewX(-10deg);
        transform-origin: left center;
      }
      .dot-red { fill: #EF3340; }
      .dot-white { fill: #FFFFFF; }
      .dot-blue { fill: #00A3E0; }
    </style>
  </defs>

  <!-- Fond noir arrondi -->
  <rect x="0" y="0" width="320" height="120" rx="20" class="card"/>

  <!-- Carrés colorés -->
  <g>
    <!-- 🌊 Nuage principal (abaissé) -->
    <rect x="36" y="94" width="4" height="4" class="dot-blue"/>
    <rect x="44" y="96" width="4" height="4" class="dot-red"/>
    <rect x="52" y="98" width="4" height="4" class="dot-white"/>
    <rect x="60" y="92" width="4" height="4" class="dot-blue"/>
    <rect x="68" y="100" width="4" height="4" class="dot-red"/>
    <rect x="76" y="96" width="4" height="4" class="dot-white"/>
    <rect x="84" y="94" width="4" height="4" class="dot-blue"/>
    <rect x="92" y="98" width="4" height="4" class="dot-red"/>
    <rect x="100" y="92" width="4" height="4" class="dot-white"/>
    <rect x="108" y="100" width="4" height="4" class="dot-blue"/>
    <rect x="116" y="96" width="4" height="4" class="dot-red"/>
    <rect x="124" y="94" width="4" height="4" class="dot-white"/>

    <!-- 🌫️ Carrés espacés (haut et côtés, plus éloignés du texte, mêmes teintes) -->
    <rect x="40" y="24" width="4" height="4" class="dot-white"/>
    <rect x="100" y="14" width="4" height="4" class="dot-blue"/>
    <rect x="160" y="10" width="4" height="4" class="dot-red"/>
    <rect x="220" y="20" width="4" height="4" class="dot-white"/>
    <rect x="280" y="16" width="4" height="4" class="dot-blue"/>

    <!-- 🧩 Carrés du bas droite – déplacés plus bas -->
    <rect x="240" y="90" width="4" height="4" class="dot-red"/>
    <rect x="270" y="96" width="4" height="4" class="dot-blue"/>
    <rect x="290" y="88" width="4" height="4" class="dot-white"/>
  </g>

  <!-- Texte principal -->
  <g transform="translate(32, 78)">
    <text x="0" y="0" class="label" font-size="64" fill="url(#lux-flag)">web3.lu</text>
  </g>
</svg>
