<!-- qubit.lu — Logo texte italique (Outfit), nuage décalé à droite, fond allégé -->
<svg width="340" height="120" viewBox="0 0 340 120" xmlns="http://www.w3.org/2000/svg" role="img" aria-labelledby="title desc">
  <title id="title">qubit.lu — logo texte final (nuage à droite)</title>
  <desc id="desc">Logo "qubit.lu" en italique (Outfit), drapeau luxembourgeois dans le texte, nuage tricolore légèrement déplacé à droite, et quelques carrés dispersés sur le bas du fond noir arrondi.</desc>

  <defs>
    <!-- Dégradé luxembourgeois -->
    <linearGradient id="lux-flag" x1="0" y1="0" x2="0" y2="1">
      <stop offset="0%"  stop-color="#EF3340"/>
      <stop offset="43%" stop-color="#EF3340"/>
      <stop offset="43%" stop-color="#FFFFFF"/>
      <stop offset="61%" stop-color="#FFFFFF"/>
      <stop offset="61%" stop-color="#00A3E0"/>
      <stop offset="100%" stop-color="#00A3E0"/>
    </linearGradient>

    <!-- Styles -->
    <style>
      @import url('https://fonts.googleapis.com/css2?family=Outfit:wght@700&display=swap');
      .card { fill:#0B0C10; }
      .label {
        font-family:"Outfit",sans-serif;
        font-weight:700;
        letter-spacing:.5px;
        transform:skewX(-10deg);
        transform-origin:left center;
      }
      .dot-red { fill:#EF3340; }
      .dot-white { fill:#FFFFFF; }
      .dot-blue { fill:#00A3E0; }
    </style>
  </defs>

  <!-- Fond noir arrondi -->
  <rect x="0" y="0" width="340" height="120" rx="20" class="card"/>

  <!-- Carrés tricolores -->
  <g>
    <!-- 🌊 Nuage principal — déplacé un peu plus à droite -->
    <rect x="220" y="16" width="4" height="4" class="dot-blue"/>
    <rect x="228" y="18" width="4" height="4" class="dot-red"/>
    <rect x="236" y="20" width="4" height="4" class="dot-white"/>
    <rect x="244" y="14" width="4" height="4" class="dot-blue"/>
    <rect x="252" y="22" width="4" height="4" class="dot-red"/>
    <rect x="260" y="18" width="4" height="4" class="dot-white"/>
    <rect x="268" y="16" width="4" height="4" class="dot-blue"/>
    <rect x="276" y="20" width="4" height="4" class="dot-red"/>
    <rect x="284" y="14" width="4" height="4" class="dot-white"/>
    <rect x="292" y="22" width="4" height="4" class="dot-blue"/>
    <rect x="300" y="18" width="4" height="4" class="dot-red"/>
    <rect x="308" y="16" width="4" height="4" class="dot-white"/>

    <!-- ☁️ Quelques carrés haut gauche -->
    <rect x="40" y="16" width="4" height="4" class="dot-blue"/>
    <rect x="56" y="22" width="4" height="4" class="dot-red"/>
    <rect x="72" y="18" width="4" height="4" class="dot-white"/>

    <!-- 🌌 Carrés allégés et dispersés sur le bas -->
    <rect x="52" y="98" width="4" height="4" class="dot-red"/>
    <rect x="90" y="92" width="4" height="4" class="dot-blue"/>
    <rect x="130" y="94" width="4" height="4" class="dot-white"/>
    <rect x="176" y="108" width="4" height="4" class="dot-red"/>
    <rect x="218" y="104" width="4" height="4" class="dot-blue"/>
    <rect x="260" y="100" width="4" height="4" class="dot-white"/>
    <rect x="300" y="96" width="4" height="4" class="dot-red"/>
  </g>

  <!-- Texte principal -->
  <g transform="translate(32,78)">
    <text x="0" y="0" class="label" font-size="64" fill="url(#lux-flag)">qubit.lu</text>
  </g>
</svg>
